<svg width="200" height="37" viewBox="0 0 200 37" fill="none" xmlns="http://www.w3.org/2000/svg">
<g clip-path="url(#clip0_13443_410)">
<path d="M27.5042 36.0778L5.9287 31.7648C4.92778 31.5691 3.97857 31.1672 3.14151 30.5846C2.30444 30.002 1.59787 29.2514 1.06678 28.3807C0.535692 27.5101 0.191723 26.5383 0.0567766 25.5275C-0.0781696 24.5166 -0.00113612 23.4886 0.282972 22.5091L5.00524 5.84478C5.33354 4.68776 5.91762 3.61928 6.71432 2.7183C7.51103 1.81732 8.49999 1.10687 9.60814 0.639428C10.7163 0.17199 11.9153 -0.0404852 13.1166 0.0177023C14.3179 0.0758898 15.4908 0.403252 16.5486 0.975603L31.3975 9.01395C32.7105 9.72453 33.8172 10.763 34.6098 12.0282C35.4024 13.2934 35.8539 14.7423 35.9203 16.2338L36.4555 28.4067C36.5045 29.5412 36.295 30.6719 35.8428 31.7135C35.3907 32.7551 34.7077 33.6803 33.8455 34.4192C32.9832 35.1581 31.9644 35.6913 30.8658 35.9787C29.7673 36.266 28.6178 36.2999 27.5042 36.0778Z" fill="white"></path>
<path fill-rule="evenodd" clip-rule="evenodd" d="M10.9338 29.289C10.9794 29.1619 10.9891 29.0247 10.9619 28.8924C10.9346 28.7601 10.8714 28.6379 10.7792 28.5392C10.6871 28.4406 10.5695 28.3692 10.4394 28.333C10.3092 28.2968 10.1717 28.2971 10.0418 28.334L9.43313 28.439C9.03579 28.5703 8.60889 28.5834 8.20423 28.4769C7.79956 28.3703 7.43453 28.1485 7.15342 27.8385C6.87232 27.5286 6.68723 27.1436 6.62062 26.7305C6.55401 26.3174 6.60874 25.8938 6.77816 25.5112L9.00287 17.2105C9.33309 16.1707 9.93041 15.2358 10.7351 14.4992C11.5399 13.7626 12.5239 13.2501 13.5887 13.0129L14.1869 12.908C14.5415 12.8339 14.8709 12.6694 15.143 12.4303C15.4152 12.1913 15.6208 11.8858 15.74 11.5437C16.0749 10.5083 16.6724 9.57741 17.4743 8.84175C18.2761 8.10609 19.255 7.59081 20.3153 7.34617L23.0857 6.9474C19.6962 5.08998 16.3381 3.27453 15.4147 2.8023C14.805 2.39384 14.1192 2.11255 13.3983 1.97526C12.6774 1.83796 11.9362 1.84748 11.2191 2.00325C10.502 2.15902 9.82364 2.45784 9.22467 2.88183C8.62569 3.30581 8.11839 3.84626 7.73311 4.47084C7.26379 5.104 6.90865 5.81427 6.68372 6.56962C5.92815 9.14063 3.23121 18.1339 2.09787 23.0871C0.765141 28.9637 7.04051 29.9711 7.04051 29.9711L10.8918 30.7791C10.7514 30.2816 10.7514 29.755 10.8918 29.2575" fill="#EF7F13"></path>
<path fill-rule="evenodd" clip-rule="evenodd" d="M33.9787 16.3917C33.9165 15.4297 33.657 14.4908 33.2165 13.6333C32.776 12.7758 32.1639 12.018 31.4182 11.4071L30.883 11.1133C30.1608 11.706 29.3025 12.1099 28.3855 12.2886L18.4267 13.9676C17.9806 14.0692 17.5691 14.2867 17.2338 14.5981C16.8985 14.9094 16.6512 15.3037 16.5168 15.7411L14.1242 24.556C14.0544 24.7159 14.0324 24.8926 14.061 25.0648C14.0895 25.2369 14.1674 25.3971 14.2851 25.5259C14.4028 25.6547 14.5553 25.7466 14.7242 25.7905C14.8931 25.8344 15.071 25.8285 15.2366 25.7733L25.1848 24.1362C25.583 24.0103 26.009 24.0013 26.4122 24.1103C26.8154 24.2192 27.1789 24.4415 27.4595 24.7509C27.7401 25.0602 27.9261 25.4436 27.9954 25.8555C28.0646 26.2673 28.0143 26.6904 27.8503 27.0745L27.0527 30.0233L15.9921 31.8493L26.5805 34.0425C30.6207 34.8505 32.7195 33.0771 33.7269 31.6394C34.2756 30.843 34.5449 29.8872 34.4929 28.9215C34.346 25.9097 33.9787 17.7035 33.9787 16.3917Z" fill="#EF7F13"></path>
<path d="M58.357 18.7321C58.357 16.266 57.4755 13.9678 54.6211 13.9678C50.9588 13.9678 50.602 18.7636 50.602 21.4605C50.602 24.5037 50.9588 28.4285 54.8835 28.4285C57.3181 28.4285 58.4514 26.3822 58.7453 24.2309L63.8033 24.5562C63.2472 29.6458 59.7422 32.668 54.6211 32.668C48.01 32.668 44.7988 27.2846 44.7988 21.2191C44.7988 15.1537 48.1044 9.78076 54.789 9.78076C60.3613 9.78076 63.1842 13.0234 63.8033 18.3753L58.357 18.7321Z" fill="white"></path>
<path d="M70.5187 14.4204V18.8908H78.9139V23.0884H70.5187V28.0206H81.212V32.3336H65.3242V10.1074H81.212V14.4204H70.5187Z" fill="white"></path>
<path d="M98.9574 14.5149H93.3956V32.3545H88.1487V14.5149H82.5449V10.1074H98.9574V14.5149Z" fill="white"></path>
<path d="M105.475 32.3545H100.291V10.1074H109.662C111.635 10.1074 113.65 10.1074 115.36 11.2408C116.247 11.8669 116.967 12.6996 117.459 13.667C117.951 14.6343 118.199 15.707 118.183 16.7921C118.212 18.0223 117.864 19.232 117.184 20.2582C116.505 21.2845 115.528 22.0781 114.384 22.5322L118.498 32.3545H112.726L109.316 23.5606H105.527L105.475 32.3545ZM105.475 19.7618H108.329C109.4 19.8833 110.484 19.7279 111.478 19.3106C111.888 19.0322 112.224 18.6566 112.455 18.2173C112.685 17.7779 112.804 17.2883 112.8 16.7921C112.791 16.3386 112.672 15.894 112.453 15.4971C112.233 15.1002 111.92 14.763 111.541 14.5149C110.479 14.1033 109.333 13.9592 108.203 14.0951H105.475V19.7618Z" fill="white"></path>
<path d="M122.044 29.1737C120.466 26.8172 119.65 24.0336 119.704 21.1983C119.704 15.2902 122.663 9.78093 129.243 9.78093C130.614 9.70516 131.982 9.97826 133.219 10.5747C134.456 11.1711 135.521 12.0714 136.316 13.1915C137.895 15.5616 138.728 18.3503 138.708 21.1983C138.739 23.9145 138.013 26.5855 136.609 28.9114C135.803 30.1089 134.706 31.0825 133.422 31.7413C132.137 32.4002 130.707 32.7226 129.264 32.6787C127.861 32.7585 126.462 32.4783 125.198 31.8649C123.934 31.2514 122.849 30.325 122.044 29.1737ZM125.874 16.581C125.377 18.0759 125.136 19.6441 125.161 21.2193C125.161 24.0107 125.58 28.4496 129.243 28.4496C130.009 28.4926 130.765 28.2618 131.376 27.7985C131.987 27.3352 132.414 26.6696 132.58 25.9206C133.069 24.4137 133.3 22.8347 133.262 21.2508C133.323 19.5386 133.048 17.831 132.454 16.2242C132.238 15.5557 131.804 14.9788 131.222 14.5852C130.64 14.1915 129.944 14.0038 129.243 14.052C128.487 14.0312 127.747 14.2682 127.145 14.7241C126.542 15.18 126.112 15.8275 125.927 16.56L125.874 16.581Z" fill="white"></path>
<path d="M149.286 24.5982V20.4006H158.458V32.3532H156.097L155.31 29.7927C154.611 30.7297 153.695 31.4823 152.639 31.9851C151.584 32.488 150.423 32.726 149.255 32.6785C142.727 32.6785 140.041 27.2636 140.041 21.429C140.041 15.395 142.99 9.78076 149.706 9.78076C154.502 9.78076 157.744 12.6981 158.426 17.3994L153.494 18.0815C153.274 15.8463 152.067 13.9678 149.58 13.9678C145.907 13.9678 145.382 18.7321 145.382 21.492C145.382 24.2519 146.19 28.46 149.821 28.46C150.329 28.4919 150.838 28.4125 151.312 28.2273C151.786 28.0422 152.214 27.7556 152.566 27.3878C152.918 27.02 153.185 26.5798 153.349 26.0979C153.513 25.6161 153.57 25.1042 153.515 24.5982H149.286Z" fill="white"></path>
<path d="M179.898 32.3545H174.283L172.919 27.7792H165.72L164.335 32.3545H159.76L166.854 10.1074H172.877L179.898 32.3545ZM171.723 23.6971L169.362 15.8791L166.99 23.6971H171.723Z" fill="white"></path>
<path d="M186.414 32.3545H181.23V10.1074H190.602C192.574 10.1074 194.589 10.1074 196.3 11.2408C197.186 11.8669 197.906 12.6996 198.398 13.667C198.89 14.6343 199.139 15.707 199.123 16.7921C199.148 18.0285 198.791 19.2426 198.102 20.2696C197.413 21.2965 196.425 22.0865 195.271 22.5322L199.385 32.3545H193.613L190.203 23.5606H186.414V32.3545ZM186.414 19.7618H189.269C190.34 19.8833 191.424 19.7279 192.417 19.3106C192.828 19.0322 193.164 18.6566 193.394 18.2173C193.625 17.7779 193.743 17.2883 193.739 16.7921C193.731 16.3386 193.612 15.894 193.392 15.4971C193.173 15.1002 192.86 14.763 192.48 14.5149C191.419 14.1033 190.273 13.9592 189.143 14.0951H186.414V19.7618Z" fill="white"></path>
</g>
<defs>
<clipPath id="clip0_13443_410">
<rect width="199.385" height="36.225" fill="white"></rect>
</clipPath>
</defs>
</svg>
