<?xml version="1.0" encoding="UTF-8"?> <svg xmlns="http://www.w3.org/2000/svg" width="401" height="83" viewBox="0 0 401 83" fill="none"><path d="M43.8278 78.3158C62.4415 78.3158 77.949 65.3899 81.3509 48.2621H61.1981C58.3462 54.848 51.644 59.4766 43.8278 59.4766C33.4278 59.4766 24.9969 51.2814 24.9969 41.1754C24.9969 31.0648 33.4278 22.8742 43.8278 22.8742C52.1016 22.8742 59.1227 28.064 61.6557 35.2713H81.5682C78.707 17.8699 63.4121 4.50346 44.817 4.04431C44.4888 4.03503 44.1606 4.0304 43.8324 4.0304C43.5043 4.0304 43.1761 4.03503 42.8479 4.04431C22.1866 4.55448 5.60675 20.9819 5.60675 41.18C5.60675 61.6935 22.7182 78.3158 43.8278 78.3158Z" fill="#0073AE"></path><path d="M81.5682 35.2714H61.6511C59.1227 28.0641 52.097 22.8743 43.8232 22.8743C33.4232 22.8743 24.9923 31.0648 24.9923 41.1755C24.9923 51.2861 33.4232 59.4766 43.8232 59.4766C51.6394 59.4766 58.3416 54.848 61.1935 48.2622H81.3509C81.8085 45.9664 82.0489 43.5964 82.0489 41.1755C82.0489 39.1672 81.8825 37.1961 81.5682 35.2714Z" fill="#B1B4B6"></path><path d="M128.678 47.7009C128.012 49.737 126.986 51.5597 125.595 53.1505C124.199 54.7459 122.539 55.9657 120.626 56.8144C118.703 57.6724 116.618 58.1038 114.363 58.1038C111.585 58.1038 109.001 57.3756 106.625 55.9332C104.24 54.4908 102.354 52.5244 100.968 50.0338C99.5717 47.534 98.883 44.8301 98.883 41.9221C98.883 39.733 99.2759 37.6367 100.071 35.6238C100.866 33.611 101.961 31.8486 103.39 30.3227C104.813 28.82 106.463 27.6281 108.34 26.7793C110.221 25.926 112.232 25.49 114.363 25.49C117.732 25.49 120.695 26.4268 123.237 28.282C125.789 30.1418 127.596 32.6834 128.673 35.8882H126.27C125.798 34.6684 125.17 33.56 124.384 32.5535C123.603 31.5425 122.692 30.6844 121.652 29.9748C120.612 29.2652 119.48 28.7273 118.259 28.3562C117.03 27.9852 115.74 27.8043 114.363 27.8043C111.996 27.8043 109.787 28.4351 107.735 29.7151C105.692 30.9859 104.074 32.7066 102.886 34.8725C101.707 37.0291 101.116 39.3805 101.116 41.9407C101.116 44.4498 101.707 46.7687 102.886 48.9022C104.074 51.0356 105.682 52.7238 107.711 53.9807C109.741 55.2375 111.955 55.8683 114.363 55.8683C115.722 55.8683 117.03 55.6828 118.319 55.3071C119.6 54.9314 120.755 54.3934 121.772 53.6885C122.794 52.9835 123.695 52.1069 124.485 51.0727C125.28 50.0245 125.895 48.9068 126.325 47.7102H128.678V47.7009Z" fill="#B1B4B6"></path><path d="M148.193 25.4854C150.952 25.4854 153.527 26.2228 155.916 27.6791C158.306 29.1539 160.201 31.1343 161.602 33.6573C163.002 36.1711 163.7 38.9214 163.7 41.9128C163.7 44.8393 163.002 47.5432 161.602 50.0292C160.206 52.5151 158.311 54.4862 155.93 55.9239C153.55 57.3663 150.971 58.0945 148.193 58.0945C145.429 58.0945 142.859 57.3663 140.478 55.9239C138.098 54.4816 136.212 52.5151 134.807 50.0292C133.406 47.5432 132.704 44.8393 132.704 41.9128C132.704 39.6866 133.106 37.5857 133.91 35.5867C134.714 33.5878 135.828 31.8346 137.247 30.3181C138.671 28.8154 140.321 27.6234 142.202 26.7747C144.074 25.9213 146.071 25.4854 148.193 25.4854ZM148.193 55.975C149.949 55.975 151.655 55.6132 153.3 54.885C154.946 54.1569 156.365 53.1505 157.562 51.8519C158.759 50.5579 159.702 49.0598 160.382 47.367C161.07 45.6602 161.412 43.8468 161.412 41.9314C161.412 39.3388 160.821 36.9503 159.647 34.7565C158.468 32.5674 156.878 30.8329 154.844 29.5435C152.82 28.2542 150.596 27.6095 148.193 27.6095C145.798 27.6095 143.589 28.2542 141.546 29.5435C139.517 30.8329 137.899 32.5674 136.716 34.7565C135.533 36.9503 134.941 39.3388 134.941 41.9314C134.941 43.8144 135.278 45.6046 135.972 47.2928C136.656 48.9856 137.613 50.4837 138.833 51.8101C140.058 53.1366 141.486 54.1569 143.113 54.885C144.731 55.6132 146.422 55.975 148.193 55.975Z" fill="#B1B4B6"></path><path d="M233.801 47.7009C233.131 49.737 232.1 51.5597 230.718 53.1505C229.322 54.7459 227.667 55.9657 225.753 56.8144C223.831 57.6724 221.746 58.1038 219.495 58.1038C216.712 58.1038 214.133 57.3756 211.753 55.9332C209.372 54.4908 207.491 52.5244 206.1 50.0338C204.704 47.534 204.015 44.8301 204.015 41.9221C204.015 39.733 204.413 37.6367 205.203 35.6238C205.994 33.611 207.103 31.8486 208.517 30.3227C209.936 28.82 211.596 27.6281 213.472 26.7793C215.353 25.926 217.364 25.49 219.5 25.49C222.869 25.49 225.827 26.4268 228.37 28.282C230.921 30.1418 232.738 32.6834 233.805 35.8882H231.393C230.921 34.6684 230.297 33.5646 229.511 32.5535C228.726 31.5425 227.82 30.6844 226.78 29.9748C225.749 29.2652 224.616 28.7273 223.392 28.3562C222.162 27.9852 220.863 27.8043 219.49 27.8043C217.119 27.8043 214.91 28.4351 212.867 29.7151C210.819 30.9859 209.201 32.7066 208.018 34.8725C206.83 37.0291 206.238 39.3805 206.238 41.9407C206.238 44.4498 206.83 46.7687 208.018 48.9022C209.201 51.0356 210.814 52.7238 212.834 53.9807C214.868 55.2375 217.082 55.8683 219.49 55.8683C220.84 55.8683 222.162 55.6828 223.438 55.3071C224.723 54.9314 225.878 54.3934 226.895 53.6885C227.917 52.9835 228.823 52.1069 229.618 51.0727C230.403 50.0245 231.018 48.9068 231.443 47.7102H233.801V47.7009Z" fill="#B1B4B6"></path><path d="M243.082 21.0098H240.85V15.4675H243.082V21.0098ZM243.082 57.3571H240.85V26.2599H243.082V57.3571Z" fill="#B1B4B6"></path><path d="M279.843 47.7009C278.669 51.0634 276.834 53.6282 274.351 55.4138C271.865 57.204 268.8 58.0945 265.153 58.0945C262.278 58.0945 259.616 57.3802 257.18 55.9471C254.735 54.514 252.817 52.5615 251.421 50.0802C250.015 47.6082 249.318 44.8811 249.318 41.9175C249.318 39.7284 249.71 37.632 250.505 35.6192C251.291 33.6063 252.405 31.8393 253.824 30.3181C255.239 28.8154 256.893 27.6234 258.775 26.7747C260.651 25.9213 262.662 25.4854 264.802 25.4854C266.91 25.4854 268.93 25.926 270.834 26.8025C272.743 27.6837 274.411 28.8896 275.831 30.434C277.25 31.9831 278.354 33.764 279.163 35.7722L252.456 47.047C253.473 49.737 255.128 51.8797 257.411 53.4751C259.69 55.0613 262.274 55.859 265.149 55.859C267.441 55.859 269.401 55.4833 271.028 54.732C272.655 53.9899 273.968 53.0206 274.98 51.8194C275.988 50.6274 276.829 49.25 277.49 47.7009H279.843ZM251.545 41.8711C251.545 42.8126 251.642 43.7912 251.841 44.8161L276.168 34.6313C275.008 32.5257 273.418 30.8375 271.393 29.5482C269.369 28.2542 267.159 27.6142 264.797 27.6142C262.976 27.6142 261.257 27.9852 259.653 28.7041C258.04 29.4368 256.639 30.4479 255.423 31.7604C254.203 33.0637 253.256 34.5896 252.572 36.3334C251.892 38.0726 251.545 39.9139 251.545 41.8711Z" fill="#B1B4B6"></path><path d="M346.971 47.7009C346.31 49.737 345.275 51.5597 343.893 53.1505C342.497 54.7459 340.842 55.9657 338.924 56.8191C337.005 57.6724 334.921 58.1038 332.67 58.1038C329.887 58.1038 327.308 57.3756 324.932 55.9332C322.547 54.4908 320.661 52.5244 319.265 50.0338C317.879 47.534 317.185 44.8301 317.185 41.9221C317.185 39.733 317.583 37.6367 318.373 35.6238C319.168 33.611 320.273 31.8486 321.687 30.3227C323.111 28.82 324.766 27.6281 326.642 26.7793C328.528 25.926 330.53 25.49 332.67 25.49C336.039 25.49 338.998 26.4268 341.544 28.282C344.091 30.1418 345.903 32.6834 346.971 35.8882H344.567C344.091 34.6684 343.472 33.5646 342.682 32.5535C341.9 31.5425 340.99 30.6844 339.945 29.9748C338.905 29.2652 337.782 28.7273 336.557 28.3562C335.332 27.9852 334.033 27.8043 332.661 27.8043C330.289 27.8043 328.08 28.4351 326.037 29.7151C323.985 30.9859 322.372 32.7066 321.179 34.8725C320.005 37.0291 319.404 39.3805 319.404 41.9407C319.404 44.4498 320 46.7687 321.179 48.9022C322.372 51.0356 323.975 52.7238 326 53.9807C328.029 55.2375 330.248 55.8683 332.661 55.8683C334.01 55.8683 335.332 55.6828 336.608 55.3071C337.893 54.9314 339.049 54.3934 340.061 53.6885C341.082 52.9835 341.984 52.1069 342.779 51.0727C343.574 50.0245 344.188 48.9068 344.614 47.7102H346.971V47.7009Z" fill="#B1B4B6"></path><path d="M356.262 21.0098H354.029V15.4675H356.262V21.0098ZM356.262 57.3571H354.029V26.2599H356.262V57.3571Z" fill="#B1B4B6"></path><path d="M393.429 41.9128V57.3524H391.196V49.8622C389.902 52.3852 388.086 54.3842 385.742 55.8636C383.408 57.3524 380.806 58.0898 377.968 58.0898C375.19 58.0898 372.606 57.371 370.23 55.9239C367.85 54.4862 365.959 52.5151 364.572 50.0199C363.181 47.5247 362.488 44.8208 362.488 41.9128C362.488 39.7237 362.881 37.6274 363.676 35.6192C364.471 33.6063 365.571 31.8346 366.999 30.3181C368.413 28.8154 370.068 27.6234 371.945 26.7747C373.831 25.9213 375.837 25.4854 377.968 25.4854C380.75 25.4854 383.325 26.2228 385.696 27.6837C388.072 29.1539 389.948 31.1482 391.344 33.6759C392.731 36.1989 393.429 38.9446 393.429 41.9128ZM391.196 41.9267C391.196 39.3712 390.605 37.0152 389.417 34.8586C388.233 32.6973 386.616 30.9766 384.573 29.7012C382.525 28.4258 380.33 27.7904 377.972 27.7904C375.61 27.7904 373.396 28.4211 371.344 29.7012C369.296 30.972 367.683 32.6927 366.5 34.8586C365.317 37.0152 364.725 39.3712 364.725 41.9267C364.725 44.4358 365.317 46.7594 366.5 48.8882C367.683 51.0217 369.292 52.7099 371.316 53.9667C373.345 55.2236 375.564 55.8544 377.968 55.8544C380.343 55.8544 382.544 55.2236 384.568 53.9667C386.593 52.7099 388.201 51.0217 389.403 48.8882C390.6 46.7594 391.196 44.4358 391.196 41.9267Z" fill="#B1B4B6"></path><path d="M243.082 15.4722V21.0098H240.854" fill="#58595B"></path><path d="M356.262 15.4722V21.0098H354.029" fill="#58595B"></path><path d="M243.082 15.4675H240.85V21.0098H243.082V15.4675Z" fill="#0073AE"></path><path d="M356.257 15.4675H354.024V21.0098H356.257V15.4675Z" fill="#0073AE"></path><path d="M196.153 58.1734C195.834 58.1734 195.524 58.0342 195.307 57.7792L170.953 29.0566V57.0139C170.953 57.6308 170.458 58.127 169.843 58.127C169.228 58.127 168.729 57.6261 168.729 57.0139V26.0234C168.729 25.555 169.02 25.1376 169.455 24.9752C169.899 24.8129 170.384 24.9428 170.684 25.2999L195.039 54.0225V25.4854C195.039 24.8686 195.533 24.3723 196.148 24.3723C196.763 24.3723 197.258 24.8732 197.258 25.4854V57.0557C197.258 57.5241 196.966 57.9415 196.532 58.1038C196.412 58.1502 196.282 58.1734 196.153 58.1734Z" fill="#B1B4B6"></path><path d="M311.787 58.1734C311.468 58.1734 311.153 58.0342 310.941 57.7792L286.582 29.0566V57.0139C286.582 57.6308 286.083 58.127 285.472 58.127C284.858 58.127 284.359 57.6261 284.359 57.0139V26.0234C284.359 25.555 284.65 25.1376 285.084 24.9752C285.523 24.8129 286.013 24.9428 286.314 25.2999L310.673 54.0225V25.4854C310.673 24.8686 311.172 24.3723 311.787 24.3723C312.401 24.3723 312.896 24.8732 312.896 25.4854V57.0557C312.896 57.5241 312.605 57.9415 312.17 58.1038C312.046 58.1502 311.916 58.1734 311.787 58.1734Z" fill="#B1B4B6"></path></svg> 